<svg width="16" height="16" viewBox="0 0 16 16" fill="none" xmlns="http://www.w3.org/2000/svg">
<path d="M5.75538 2.02245C6.41306 1.57658 7.19399 1.33331 8 1.33331C9.06087 1.33331 10.0783 1.75474 10.8284 2.50489C11.5786 3.25503 12 4.27245 12 5.33331C12 6.73383 12.1801 7.83412 12.4323 8.68825M4.17245 4.17147C4.05911 4.54482 4 4.93602 4 5.33331C4 7.39344 3.48031 8.80395 2.89978 9.73692C2.41008 10.5239 2.52405 10.6768 2.53303 10.7866V10.7866C2.53486 10.8089 2.53577 10.8201 2.54684 10.8623C2.57369 10.9649 2.66595 11.0939 2.75434 11.1525C2.79077 11.1767 2.83475 11.1958 2.9227 11.2341C3.04974 11.2895 3.25213 11.3333 3.59257 11.3333H11.3333M6.23612 14C6.70621 14.4149 7.3237 14.6666 8 14.6666C8.6763 14.6666 9.29379 14.4149 9.76388 14M14 14L2 1.99998" stroke="#495057" stroke-linecap="round" stroke-linejoin="round"/>
</svg>
