<svg width="12" height="13" viewBox="0 0 12 13" fill="none" xmlns="http://www.w3.org/2000/svg">
<path d="M7.16667 12.25H4.83333M4.03595 1.76968C4.61142 1.37955 5.29474 1.16669 6 1.16669C6.92825 1.16669 7.81849 1.53544 8.47487 2.19181C9.13125 2.84819 9.5 3.73843 9.5 4.66669C9.5 5.89214 9.65761 6.85489 9.87824 7.60226M2.65089 3.65007C2.55172 3.97675 2.5 4.31905 2.5 4.66669C2.5 6.46929 2.04527 7.70349 1.5373 8.51984C1.10882 9.20845 0.894584 9.55275 0.90244 9.64879C0.911138 9.75514 0.933668 9.7957 1.01937 9.85927C1.09677 9.91669 1.44568 9.91669 2.1435 9.91669H8.91667M11.25 12.25L0.75 1.75002" stroke="black" stroke-linecap="round" stroke-linejoin="round"/>
</svg>
