<svg width="12" height="10" viewBox="0 0 12 10" fill="none" xmlns="http://www.w3.org/2000/svg">
<path fill-rule="evenodd" clip-rule="evenodd" d="M6.63543 0.88698C6.42857 0.851671 6.21624 0.833313 6 0.833313C4.08476 0.833313 2.4758 2.2734 2.2643 4.17692L2.11741 5.49888C2.05 6.10558 1.85253 6.6906 1.53847 7.21404L1.20128 7.77602C0.614023 8.75478 1.31905 9.99998 2.46047 9.99998H9.53953C10.6809 9.99998 11.386 8.75478 10.7987 7.77602L10.4615 7.21404C10.2465 6.85572 10.0862 6.46855 9.98478 6.06531C9.67595 6.17595 9.34493 6.23997 9.00019 6.2489C9.12441 6.76883 9.3277 7.26797 9.60403 7.72854L9.94122 8.29051C10.1286 8.60275 9.90365 8.99998 9.53953 8.99998H2.46047C2.09634 8.99998 1.87143 8.60275 2.05877 8.29051L2.39596 7.72853C2.78401 7.08178 3.028 6.35894 3.1113 5.60932L3.25818 4.28736C3.41341 2.89027 4.59431 1.83331 6 1.83331C6.00208 1.83331 6.00416 1.83332 6.00624 1.83332C6.15817 1.48006 6.37253 1.15998 6.63543 0.88698ZM8.66701 1.94342C8.31741 2.01962 8.02636 2.25257 7.87118 2.56493C8.3325 2.99071 8.64962 3.57367 8.73563 4.23602C8.79462 4.24521 8.85508 4.24998 8.91664 4.24998C9.21948 4.24998 9.49537 4.13459 9.70274 3.94539C9.56726 3.16635 9.19545 2.47525 8.66701 1.94342Z" fill="#222222"/>
</svg>
