<svg width="393" height="258" viewBox="0 0 393 258" fill="none" xmlns="http://www.w3.org/2000/svg">
<path d="M54.4563 226.832C43.119 236.403 43.224 251.598 44.6936 258H393V155.365C391.992 150.579 386.282 146.235 383.552 144.66C381.789 136.097 374 129.758 370.325 127.66C373.601 123.63 373.58 116.535 373.16 113.492C375.427 103.921 370.745 96.911 368.121 94.6022C369.129 93.8466 370.011 93.028 370.325 92.7132C374.86 87.424 372.215 83.793 370.325 82.6386C373.601 78.8606 373.58 69.5206 373.16 65.3228C380.718 58.2706 376.309 47.0626 373.16 42.3401C374.168 23.702 361.822 17.5733 355.524 16.8387C350.233 7.26784 337.573 7.60365 331.905 8.96791C325.354 2.67126 313.849 6.3443 308.915 8.96791C301.609 9.97537 296.003 14.6349 294.114 16.8387C283.28 10.5421 271.754 10.8569 267.345 11.8014C256.512 2.23053 244.146 2.35645 239.317 3.61577C227.728 -2.93274 213.703 0.887225 208.139 3.61577C198.818 -2.93274 184.94 0.887225 179.166 3.61577C168.585 1.34898 159.431 8.12837 156.177 11.8014C148.871 11.8014 144.735 17.6783 143.58 20.6167C141 11.8014 134 8.96791 126.574 11.8014C115.5 6.5 110 1.5 98.5 11.8014C80.5949 11.8014 77.3453 25.6231 78.5 31.5C67.6666 38.3004 68.7327 57.452 69.5725 62.4893C69.8245 74.5789 80.8049 78.8606 86.2635 79.4903C79.9651 82.7645 79.8601 91.349 80.5949 95.2319C69.7615 106.818 70.6223 116.85 72.4069 120.418C63.589 135.782 68.7327 150.118 72.4069 155.365C66.1084 176.27 77.1307 187.792 83.4292 190.941C77.1307 194.467 75.976 202.065 76.186 205.423C60.0618 208.697 54.9811 221.06 54.4563 226.832Z" fill="white"/>
<path d="M158.696 98.695C159.452 97.1838 161.741 94.4972 162.79 93.3429C164.05 91.8736 167.388 89.5649 170.664 92.0835C173.939 94.6022 175.387 97.9604 175.387 99.0098C175.639 101.528 173.498 104.677 172.553 106.881C171.608 109.084 167.724 110.029 165.625 110.029C163.357 110.281 162.161 108.455 159.956 106.251C157.752 104.047 157.752 100.584 158.696 98.695Z" fill="#5F8BC5"/>
<path d="M234.908 103.103C234.908 103.103 237.742 99.3247 238.687 98.695C239.632 98.0653 240.892 97.8135 242.151 98.0653C243.411 98.3172 245.616 98.0653 246.875 98.695C248.135 99.3247 248.45 102.158 248.45 102.158C248.45 103.669 250.339 105.306 250.339 107.195C250.339 109.084 250.76 112.185 249.5 112.5C248.24 112.815 246.945 115 246 115C245.055 115 242.151 116.011 240.577 116.011C239.002 116.011 236.798 115.066 236.483 114.437C236.168 113.807 235.664 111.162 234.908 110.659C234.152 110.155 233.753 108.14 233.648 107.195C233.753 105.936 234.908 103.103 234.908 103.103Z" fill="#5F8BC5"/>
<path d="M190 124C187.422 124.433 187.04 126.715 184.52 127.974C184.205 128.289 182.316 130.215 182.316 131.123C182.316 132.697 182.075 134.845 183.5 137C184.925 139.155 187 139 188 141C190.015 145.03 196.487 143.401 197.117 143.401C197.747 143.401 201.589 140.127 206.88 142.142C212.126 144.14 212.851 143.414 213.477 142.787L213.493 142.771C214.123 142.142 219.792 139.308 220.737 137.419C221.681 135.53 221.366 133.641 221.051 133.327C220.737 133.012 221.051 133.012 220.737 132.697C220.422 132.382 217.272 126.085 214.438 124.826C211.604 123.567 210 124.5 207.5 122.937C205.96 121.974 201.525 122.622 201 122.937C197.725 124.7 198 123.374 196 122.937C194 122.5 192.578 123.567 190 124Z" fill="#5F8BC5"/>
<path d="M187.134 163.713C187.911 162.079 189.792 162.268 190.763 162.745C192.705 163.07 195.904 163.29 197.867 163.618C200.32 164.028 202.495 164.612 204.664 164.44C207.219 164.237 208.855 163.881 210.951 162.656C212.628 161.677 213.303 159.9 216.625 160.77C218.465 161.078 218.117 162.028 218.361 163.58C218.667 165.521 216.367 166.082 214.475 167.97C212.962 169.481 210.522 170.879 209.823 171.287C205.887 172.204 202.975 170.772 199.703 171.485C196.418 172.201 195.235 171.019 193.009 170.05C191.833 169.539 190.011 168.499 188.665 167.749C187.32 166.999 186.356 165.347 187.134 163.713Z" fill="#FE8A8A"/>
<path d="M220.5 228.5C206.115 236.616 184.782 252.493 189 258H393V217.044C392.734 216.58 384.009 215.305 384.009 215.305C377.615 200.928 374.352 202.937 368.691 202.551C361.698 190.376 351.375 193.178 347.712 193.275C341.052 186.318 330.36 184.483 317.05 191.166C303.297 182.573 285.996 189.507 282.888 193.275C266.105 192.579 259.706 204.202 259.817 210.869C243.5 202.551 219.945 222.316 220.5 228.5Z" fill="#EFF4FC"/>
<path d="M168.492 217.935C201.5 201 230.112 225.714 233 232.716V258H0C5 241 20.5138 232.327 29.5 232.716C37.2025 213.734 56 211 67.5 217.935C75.3629 211.192 104.5 198 124.684 217.935C137 207 155 205.5 168.492 217.935Z" fill="#EFF4FC"/>
</svg>
